Aapadbandavudu (1992) DvdRip Telugu Movie -



SCREENSHOTS





General

Format                           : MPEG-4
File size                        : 702 MiB
Duration                         : 2h 43mn


Video

Format                           : AVC
Format settings, ReFrames        : 3 frames
Codec ID                         : avc1
Duration                         : 2h 43mn
Bit rate mode                    : Variable
Bit rate                         : 549 Kbps
Maximum bit rate                 : 2 097 Kbps
Width                            : 608 pixels
Height                           : 304 pixels
Display aspect ratio             : 2.000
Frame rate mode                  : Constant
Frame rate                       : 23.976 fps
Color space                      : YUV
Chroma subsampling               : 4:2:0
Bit depth                        : 8 bits
Scan type                        : Progressive
Bits/(Pixel*Frame)               : 0.124
Stream size                      : 641 MiB (91%)


Audio

Format                           : AAC
Duration                         : 2h 43mn
Bit rate mode                    : Variable
Bit rate                         : 48.0 Kbps
Maximum bit rate                 : 75.6 Kbps
Channel(s)                       : 2 channels
Channel positions                : Front: L R
Sampling rate                    : 48.0 KHz
Compression mode                 : Lossy
Stream size                      : 56.4 MiB (8%)



DON'T FORGET TO SEEEDDDDDDDDDDDDDDDDDDDDDDD



PLZ POST A COMMENT...................